<?xml version="1.0" encoding="utf-8"?>
<!-- Generator: Adobe Illustrator 19.0.0, SVG Export Plug-In . SVG Version: 6.00 Build 0)  -->
<svg version="1.1" id="Layer_1" xmlns="http://www.w3.org/2000/svg" xmlns:xlink="http://www.w3.org/1999/xlink" x="0px" y="0px"
	 viewBox="0 0 400 400" style="enable-background:new 0 0 400 400;" xml:space="preserve">
<path id="XMLID_8_" d="M200.3,223.7c-0.5,0.7-0.8,1.3-1.2,1.7c-37.7,37.6-75.3,75.3-113,112.9c-4.7,4.7-10.3,6.3-16.6,4.4
	c-8.1-2.5-12.4-11.4-9.8-19.6c0.8-2.6,2.3-4.8,4.2-6.7c13-13,26-26,39-38.9c24.8-24.8,49.6-49.6,74.4-74.4c0.3-0.3,0.7-0.6,1.6-1.2
	c-0.8-0.6-1.5-0.9-1.9-1.3c-37.7-37.6-75.3-75.3-113-112.9c-4.3-4.3-6.2-9.4-4.8-15.4c1.4-5.8,5.2-9.5,10.9-11.1
	c5.6-1.6,10.8-0.5,15.1,3.7c5.8,5.6,11.4,11.4,17.1,17.1c32.3,32.3,64.7,64.7,97,97c0.3,0.3,0.7,0.6,1.2,1.1c0.4-0.5,0.7-0.9,1-1.3
	c37.6-37.7,75.3-75.3,112.9-113c3.5-3.5,7.7-5.7,12.8-5.4c6.4,0.4,10.8,3.7,13.3,9.5c2.4,5.7,1.6,11.2-2.4,16.1
	c-0.5,0.7-1.1,1.2-1.7,1.8c-37.6,37.6-75.1,75.2-112.7,112.8c-0.4,0.4-1,0.7-1.8,1.3c0.9,0.7,1.4,1,1.8,1.4
	c37.6,37.6,75.2,75.1,112.8,112.7c4.9,4.9,6.7,10.7,4.3,17.4c-3.5,10-17.1,13.3-24.9,6.1c-0.7-0.6-1.3-1.2-1.9-1.9
	c-37.4-37.4-74.9-74.9-112.3-112.3C201.4,225,201,224.5,200.3,223.7z"/>
</svg>
