<?xml version="1.0" encoding="utf-8"?>
<!-- Generator: Adobe Illustrator 19.0.0, SVG Export Plug-In . SVG Version: 6.00 Build 0)  -->
<svg version="1.1" id="Layer_1" xmlns="http://www.w3.org/2000/svg" xmlns:xlink="http://www.w3.org/1999/xlink" x="0px" y="0px"
	 viewBox="0 0 400 400" style="enable-background:new 0 0 400 400;" xml:space="preserve">
<g id="XMLID_1_">
	<path id="XMLID_2_" d="M46.6,217c51.4,0,102.8,0,154.2,0c43.7,0,87.5,0,131.2,0c7.9,0,15.7,0.1,23.6,0
		c10.7-0.1,18.6-11.2,15.3-21.4c-2.4-7.3-8.5-11.7-16.4-11.7c-102.6,0-205.1,0-307.7,0c-0.4,0-0.8,0-1.3,0
		c-10,0.3-17.6,10.1-15.4,19.9C31.7,211.7,38.4,217,46.6,217z"/>
	<path id="XMLID_6_" d="M353.4,283.1c-101.9,0-203.7,0-305.6,0c-1.2,0-2.4,0-3.6,0.2c-9.3,1.3-15.6,9.3-14.5,18.2
		c1.1,8.7,8,14.7,16.9,14.7c51.2,0,102.5,0,153.7,0c51.5,0,102.9,0,154.4,0c12,0,20-11.9,15.4-22.9
		C367.5,286.7,361.6,283.1,353.4,283.1z"/>
	<path id="XMLID_7_" d="M46.6,117.7c51.3,0,102.6,0,154,0c51.5,0,102.9,0,154.4,0c11.5,0,19.4-11.1,15.7-22c-2.3-6.7-8.5-11-16-11
		c-102.7,0-205.4,0-308.1,0c-0.4,0-0.7,0-1.1,0c-10,0.3-17.5,9.9-15.4,19.7C31.7,112.4,38.2,117.7,46.6,117.7z"/>
</g>
</svg>
